<?xml version="1.0" standalone="no"?>
<!DOCTYPE svg PUBLIC "-//W3C//DTD SVG 1.1//EN" "http://www.w3.org/Graphics/SVG/1.1/DTD/svg11.dtd">
<svg xmlns="http://www.w3.org/2000/svg">
<defs >
<font id="IBMPlexMono" horiz-adv-x="600" ><font-face
    font-family="IBM Plex Mono Medium"
    units-per-em="1000"
    panose-1="2 11 6 9 5 2 3 0 2 3"
    ascent="1025"
    descent="-275"
    alphabetic="0" />
<glyph unicode=" " glyph-name="space" />
<glyph unicode="!" glyph-name="exclam" d="M275 237L280 495L314 698H431L397 495L315 237H275ZM257 -10Q216 -10 199 5T182 42Q182 47 183 55T187 82Q192 109 212 128T278 147Q319 147 336 132T353 95Q353 90 352 82T348 55Q343 28 323 9T257 -10Z" />
<glyph unicode="&quot;" glyph-name="quotedbl" d="M442 443L491 740H589L540 443H442ZM380 443L429 740H527L478 443H380Z" />
<glyph unicode="#" glyph-name="numbersign" d="M128 208H7L21 290H156L196 408H75L89 490H224L296 698H386L148 0H57L128 208ZM484 698H574L503 490H624L610 408H475L435 290H556L542 208H407L336 0H245L484 698Z" />
<glyph unicode="$" glyph-name="dollar" d="M218 -8Q149 0 98 31T21 107L95 174Q148 95 237 82L276 316L258 321Q97 362 97 495Q97 542 114 580T162 646T238 690T337 709L354 811H436L419 705Q480 695 522 667T588 601L514 538Q493 569 465 588T398 614L362 396L383
391Q464 370 505 328T546 218Q546 170 529 130T480 59T403 11T299 -11L282 -113H200L218 -8ZM205 505Q205 467 227 448T293 416L326 616Q268 610 237 581T205 505ZM437 208Q437 243 416 264T345 298L310 82Q370 90 403 123T437 208Z" />
<glyph unicode="%" glyph-name="percent" d="M190 349Q128 349 93 386T58 494Q58 542 71 581T108 649T165 694T237 710Q299 710 334 673T369 565Q369 517 356 477T319 409T262 365T190 349ZM194 416Q234 416 253 441T278 503Q283 535 286 551T289 579Q289 643
233 643Q193 643 174 618T149 556Q144 524 141 508T138 480Q138 416 194 416ZM575 698H663L457 398H369L575 698ZM176 300H264L58 0H-30L176 300ZM396 -12Q334 -12 299 25T264 133Q264 181 277 220T314 288T371 333T443 349Q505 349 540 312T575 204Q575 156 562
116T525 48T468 4T396 -12ZM400 55Q440 55 459 80T484 142Q489 174 492 190T495 218Q495 282 439 282Q399 282 380 257T355 195Q350 163 347 147T344 119Q344 55 400 55Z" />
<glyph unicode="&amp;" glyph-name="ampersand" d="M159 -12Q87 -12 46 37T5 171Q5 210 14 248T45 316T103 368T194 393Q177 433 168 465T159 531Q159 570 172 603T211 660T272 697T352 710Q428 710 475 666T522 539Q522 449 470 396T326 326L435 86L452 84L526
199L593 158L543 70Q518 25 494 7T435 -12Q393 -12 364 23T312 136H307Q296 58 255 23T159 -12ZM189 81Q230 81 254 103T289 167L214 344Q185 339 168 328T140 303T125 271T117 237Q114 218 114 204T113 178Q113 127 132 104T189 81ZM344 629Q304 629 282 604T259
532Q259 499 268 467T298 390L306 374Q352 387 378 411T414 473Q419 493 421 509T423 540Q423 586 401 607T344 629Z" />
<glyph unicode="&apos;" glyph-name="quotesingle" d="M282 443L331 740H429L380 443H282Z" />
<glyph unicode="(" glyph-name="parenleft" d="M191 226Q191 311 214 391T278 541T369 667T476 760H586Q534 724 487 680T403 585T339 478T302 361L287 272Q284 254 283 237T282 203Q282 152 294 103T328 10T377 -71T437 -138H337Q306 -110 280 -72T234 13T203
113T191 226Z" />
<glyph unicode=")" glyph-name="parenright" d="M429 397Q429 312 406 232T343 82T252 -44T144 -138H35Q86 -102 133 -58T217 38T281 145T318 262L333 350Q336 368 337 385T338 419Q338 470 326 519T292 612T243 693T183 760H283Q314 732 340 694T386 610T417
509T429 397Z" />
<glyph unicode="*" glyph-name="asterisk" d="M150 50L79 104L224 265L50 330L90 412L267 349L300 549H395L361 349L555 412L569 327L373 260L465 102L386 50L293 212L150 50Z" />
<glyph unicode="+" glyph-name="plus" d="M220 62L253 262H64L78 349H268L301 549H396L363 349H552L538 262H348L315 62H220Z" />
<glyph unicode="," glyph-name="comma" d="M226 151H378L209 -145H123L226 151Z" />
<glyph unicode="-" glyph-name="hyphen" d="M149 251L167 358H466L448 251H149Z" />
<glyph unicode="." glyph-name="period" d="M257 -10Q215 -10 198 5T180 44Q180 52 181 61T185 84Q190 116 213 134T279 152Q321 152 338 137T356 98Q356 90 355 81T351 58Q346 26 323 8T257 -10Z" />
<glyph unicode="/" glyph-name="slash" d="M15 -138L498 760H596L113 -138H15Z" />
<glyph unicode="0" glyph-name="zero" d="M268 -12Q155 -12 103 53T51 238Q51 288 57 342T79 448T117 548T176 632T257 689T362 710Q475 710 527 645T579 460Q579 410 573 356T551 250T513 150T454 66T373 9T268 -12ZM271 78Q309 78 338 92T388 134T424 201T446
290L465 404Q469 427 471 447T473 486Q473 549 446 584T359 620Q321 620 292 606T242 564T206 497T184 408L165 294Q161 271 159 251T157 212Q157 149 184 114T271 78ZM307 291Q276 291 263 302T250 330Q250 339 253 357Q257 380 272 393T323 407Q354 407 367 396T380
368Q380 359 377 341Q373 318 358 305T307 291Z" />
<glyph unicode="1" glyph-name="one" d="M44 0L59 92H254L342 616H333L146 442L84 505L290 698H465L364 92H533L518 0H44Z" />
<glyph unicode="2" glyph-name="two" d="M501 0H22L40 106L301 307Q340 337 365 360T407 405T431 447T444 493Q446 502 446 508T447 523Q447 564 419 589T340 615Q311 615 289 606T248 582T217 547T193 504L97 541Q113 576 136 607T190 661T261 697T351 710Q401
710 440 697T507 659T548 600T563 525Q563 482 549 446T509 376T445 309T359 240L164 93H517L501 0Z" />
<glyph unicode="3" glyph-name="three" d="M293 410Q358 410 395 436T441 507Q445 530 445 537Q445 575 417 596T340 618Q289 618 251 595T184 531L117 597Q137 621 160 641T213 677T277 701T356 710Q402 710 440 699T506 668T548 618T563 550Q563 484 520 435T397
368L396 364Q450 355 485 317T520 214Q520 167 502 126T449 55T363 6T246 -12Q196 -12 159 -2T95 27T50 68T19 116L103 172Q113 152 125 135T155 106T196 87T253 80Q316 80 354 108T402 190Q405 208 405 222Q405 267 375 292T284 317H205L221 410H293Z" />
<glyph unicode="4" glyph-name="four" d="M321 0L344 136H11L28 235L403 698H543L463 223H562L547 136H449L426 0H321ZM123 223H358L418 579H412L123 223Z" />
<glyph unicode="5" glyph-name="five" d="M564 603H249L190 353H196Q211 374 227 390T262 419T304 437T356 443Q397 443 431 430T490 393T529 335T543 256Q543 205 525 157T472 71T384 11T261 -12Q214 -12 178 -2T114 27T67 67T35 114L125 172Q144 132 176 107T268
81Q333 81 372 114T421 207Q423 221 424 229T425 249Q425 298 396 325T309 352Q263 352 233 335T179 297L90 309L180 698H580L564 603Z" />
<glyph unicode="6" glyph-name="six" d="M265 -12Q161 -12 106 48T51 211Q51 289 80 362T155 499T260 613T377 698H530Q463 656 409 616T313 534T238 444T183 341L189 339Q204 359 221 377T261 410T309 432T368 441Q451 441 499 391T548 255Q548 202 529 154T474
69T385 10T265 -12ZM277 77Q340 77 379 111T430 208Q432 217 433 226T434 245Q434 353 317 353Q255 353 215 320T164 223Q162 214 161 205T160 186Q160 132 190 105T277 77Z" />
<glyph unicode="7" glyph-name="seven" d="M122 0L479 606H209L187 477H91L128 698H608L592 602L242 0H122Z" />
<glyph unicode="8" glyph-name="eight" d="M261 -12Q204 -12 162 1T91 37T48 92T34 163Q34 236 79 289T206 363L207 370Q161 387 137 421T112 507Q112 544 128 580T176 646T257 692T371 710Q473 710 525 667T578 551Q578 490 540 442T430 369L429 362Q483 346
513 310T544 210Q544 167 526 127T473 56T384 7T261 -12ZM270 76Q340 76 378 107T425 188Q427 202 428 210T430 228Q430 272 399 296T308 321Q238 321 200 290T153 209Q151 195 150 187T148 169Q148 125 179 101T270 76ZM326 405Q387 405 422 433T465 506Q468 524
468 538Q468 578 440 600T358 622Q297 622 262 594T219 521Q216 503 216 489Q216 449 244 427T326 405Z" />
<glyph unicode="9" glyph-name="nine" d="M574 487Q574 409 545 336T470 199T365 85T248 0H95Q162 42 216 82T312 164T387 254T442 357L436 359Q421 339 404 321T364 288T316 266T257 257Q174 257 126 307T77 443Q77 495 96 543T151 629T239 688T360 710Q464 710
519 650T574 487ZM308 345Q370 345 410 378T461 475Q463 484 464 493T465 512Q465 566 435 593T348 621Q285 621 246 587T195 490Q193 481 192 472T191 453Q191 345 308 345Z" />
<glyph unicode=":" glyph-name="colon" d="M257 -10Q215 -10 198 5T180 44Q180 52 181 61T185 84Q190 116 213 134T279 152Q321 152 338 137T356 98Q356 90 355 81T351 58Q346 26 323 8T257 -10ZM318 364Q276 364 259 379T241 418Q241 426 242 435T246 458Q251
490 274 508T340 526Q382 526 399 511T417 472Q417 464 416 455T412 432Q407 400 384 382T318 364Z" />
<glyph unicode=";" glyph-name="semicolon" d="M226 151H378L209 -145H123L226 151ZM318 364Q276 364 259 379T241 418Q241 426 242 435T246 458Q251 490 274 508T340 526Q382 526 399 511T417 472Q417 464 416 455T412 432Q407 400 384 382T318 364Z" />
<glyph unicode="&lt;" glyph-name="less" d="M85 255L102 357L570 598L552 488L192 305L191 297L490 113L473 15L85 255Z" />
<glyph unicode="=" glyph-name="equal" d="M82 368L96 455H569L555 368H82ZM47 156L61 243H534L520 156H47Z" />
<glyph unicode="&gt;" glyph-name="greater" d="M66 125L426 308L427 316L128 500L145 598L533 358L516 256L48 15L66 125Z" />
<glyph unicode="?" glyph-name="question" d="M219 223L244 378Q290 382 325 390T384 414T423 451T443 508Q444 513 444 518T445 532Q445 572 417 594T344 617Q291 617 259 588T208 512L119 552Q131 584 151 612T201 663T269 697T357 710Q453 710 506 662T560
532Q560 482 541 444T491 378T420 334T339 311L324 223H219ZM238 -10Q197 -10 180 5T163 42Q163 47 164 55T168 82Q173 109 193 128T259 147Q300 147 317 132T334 95Q334 90 333 82T329 55Q324 28 304 9T238 -10Z" />
<glyph unicode="@" glyph-name="at" d="M407 -112H289Q159 -112 104 -43T48 159Q48 202 53 251T66 350Q81 437 104 504T163 616T248 686T363 710Q416 710 455 696T521 655T560 592T573 512Q573 501 572 488T569 460L508 91H420L434 175H430Q413 134 387 107T316
79Q213 79 213 237Q213 289 224 338T256 425T309 485T380 508Q420 508 443 486T472 429H476L481 462Q483 476 484 489T486 516Q486 573 456 604T362 635Q328 635 298 625T242 586T197 508T164 380L141 239Q139 228 138 214T136 187T135 161T135 142Q135 100 143
67T169 11T219 -24T296 -36H418L407 -112ZM353 152Q373 152 388 163T415 188Q424 200 434 221T450 274L466 368Q468 379 466 391T457 414T438 431T406 438Q334 438 316 326L310 288Q306 262 305 246T304 221Q304 152 353 152Z" />
<glyph unicode="A" glyph-name="A" d="M424 0L404 186H177L95 0H-21L300 698H450L538 0H424ZM362 588H353L217 279H395L362 588Z" />
<glyph unicode="B" glyph-name="B" d="M158 698H388Q474 698 519 655T564 537Q564 466 528 422T427 361L426 357Q477 344 506 312T536 220Q536 174 520 134T475 64T403 17T310 0H41L158 698ZM286 85Q342 85 375 108T417 176L422 206Q424 215 425 224T426 242Q426
317 327 317H202L163 85H286ZM323 398Q377 398 407 418T445 484L450 514Q453 532 453 543Q453 581 429 597T361 613H251L215 398H323Z" />
<glyph unicode="C" glyph-name="C" d="M288 -12Q173 -12 120 55T66 246Q66 343 87 427T148 575T248 674T385 710Q437 710 474 696T535 657T573 601T591 532L488 506Q484 530 478 550T459 586T427 609T377 618Q304 618 261 562T201 406L184 304Q180 281 178 262T176
220Q176 156 204 118T298 80Q325 80 347 89T387 114T420 155T452 210L543 175Q523 130 499 96T444 37T375 1T288 -12Z" />
<glyph unicode="D" glyph-name="D" d="M159 698H345Q401 698 444 681T516 633T560 558T575 460Q575 232 489 116T250 0H42L159 698ZM255 91Q333 91 378 139T440 283L458 392Q461 410 463 431T465 470Q465 607 333 607H253L167 91H255Z" />
<glyph unicode="E" glyph-name="E" d="M42 0L159 698H595L579 605H253L218 400H533L517 307H203L167 93H495L479 0H42Z" />
<glyph unicode="F" glyph-name="F" d="M42 0L159 698H607L591 605H253L218 400H527L511 308H203L152 0H42Z" />
<glyph unicode="G" glyph-name="G" d="M408 102H401Q387 79 373 58T339 22T296 -3T239 -12Q151 -12 104 52T57 242Q57 338 77 423T136 572T236 673T376 710Q426 710 462 696T523 657T560 600T578 532L475 506Q471 528 465 548T446 584T414 609T365 618Q291 618
250 561T193 407L176 307Q173 289 171 265T169 225Q169 158 194 119T279 79Q311 79 336 90T380 121T411 167T428 222L437 273H300L314 356H549L490 0H391L408 102Z" />
<glyph unicode="H" glyph-name="H" d="M426 308H192L141 0H31L147 698H257L208 400H441L490 698H600L484 0H374L426 308Z" />
<glyph unicode="I" glyph-name="I" d="M38 0L52 84H216L305 614H141L155 698H593L579 614H415L326 84H490L476 0H38Z" />
<glyph unicode="J" glyph-name="J" d="M566 698L480 186Q463 82 402 35T246 -12Q155 -12 103 34T46 165L150 186Q152 164 157 145T174 112T204 89T252 81Q352 81 372 198L440 605H195L211 698H566Z" />
<glyph unicode="K" glyph-name="K" d="M288 319L181 208L146 0H36L152 698H262L206 362H212L337 502L521 698H654L372 396L543 0H422L288 319Z" />
<glyph unicode="L" glyph-name="L" d="M67 0L183 698H293L192 93H511L495 0H67Z" />
<glyph unicode="M" glyph-name="M" d="M459 334L498 546H490L288 187L207 546H199L167 334L112 0H14L130 698H260L322 419H329L484 698H617L501 0H403L459 334Z" />
<glyph unicode="N" glyph-name="N" d="M228 546H220L129 0H31L147 698H291L403 152H411L502 698H600L484 0H340L228 546Z" />
<glyph unicode="O" glyph-name="O" d="M268 -12Q155 -12 103 53T51 236Q51 286 57 341T78 448T117 548T175 632T256 689T362 710Q475 710 527 645T579 462Q579 411 573 357T552 250T513 150T455 66T374 9T268 -12ZM271 80Q344 80 385 135T443 291L462 406Q466
429 467 448T469 485Q469 548 443 583T359 618Q286 618 245 563T187 407L168 292Q164 269 163 250T161 213Q161 150 187 115T271 80Z" />
<glyph unicode="P" glyph-name="P" d="M43 0L159 698H410Q455 698 488 686T544 650T578 595T589 525Q589 410 527 345T352 280H200L153 0H43ZM215 372H347Q452 372 467 462L473 498Q474 503 475 513T476 532Q476 606 385 606H254L215 372Z" />
<glyph unicode="Q" glyph-name="Q" d="M394 -192Q365 -192 346 -178T313 -141L224 -9Q135 3 93 66T51 236Q51 286 57 341T79 448T117 548T176 632T257 689T362 710Q475 710 527 645T579 462Q579 417 574 368T557 271T526 178T480 96T417 33T334 -4L398 -101L412
-105L506 -17L563 -68L508 -124Q489 -143 475 -156T447 -177T422 -188T394 -192ZM271 80Q344 80 385 135T443 291L462 406Q466 429 467 448T469 485Q469 548 443 583T359 618Q286 618 245 563T187 407L168 292Q164 269 163 250T161 213Q161 150 187 115T271 80Z"
/>
<glyph unicode="R" glyph-name="R" d="M152 0H43L159 698H410Q500 698 544 650T589 525Q589 425 539 365T397 291L511 0H394L292 283H199L152 0ZM347 372Q452 372 467 462L473 498Q474 503 475 513T476 532Q476 606 387 606H254L215 372H347Z" />
<glyph unicode="S" glyph-name="S" d="M267 -12Q177 -12 114 19T20 104L95 172Q158 80 273 80Q345 80 385 114T425 208Q425 248 403 270T327 304L255 321Q174 339 138 383T101 494Q101 543 119 583T172 651T253 695T360 710Q445 710 502 680T588 602L512 539Q486
578 448 598T355 619Q288 619 251 588T214 504Q214 463 238 443T315 410L385 393Q467 373 502 330T538 220Q538 169 520 126T466 53T381 5T267 -12Z" />
<glyph unicode="T" glyph-name="T" d="M413 605L312 0H202L303 605H83L99 698H649L633 605H413Z" />
<glyph unicode="U" glyph-name="U" d="M253 698L184 285Q177 244 174 219T171 178Q171 155 175 137T191 106T222 87T271 80Q314 80 340 92T381 128T405 186T420 262L493 698H603L534 284Q522 210 506 155T462 62T387 7T269 -12Q212 -12 173 0T109 36T74 93T63
170Q63 199 67 236T78 309L143 698H253Z" />
<glyph unicode="V" glyph-name="V" d="M180 0L99 698H211L246 348L270 107H277L380 348L528 698H646L334 0H180Z" />
<glyph unicode="W" glyph-name="W" d="M31 0L97 698H193L151 295L132 105H141L288 529H400L409 105H418L459 288L553 698H647L481 0H331L329 406H320L181 0H31Z" />
<glyph unicode="X" glyph-name="X" d="M540 0H420L362 140L308 273H302L206 140L101 0H-23L253 360L106 698H226L279 573L330 446H335L428 573L522 698H646L386 356L540 0Z" />
<glyph unicode="Y" glyph-name="Y" d="M203 0L246 261L85 698H202L264 523L311 372H317L417 523L535 698H661L357 266L313 0H203Z" />
<glyph unicode="Z" glyph-name="Z" d="M507 0H6L22 98L467 605H122L138 698H610L594 600L150 93H523L507 0Z" />
<glyph unicode="[" glyph-name="bracketleft" d="M142 -138L292 760H587L574 683H368L244 -61H450L437 -138H142Z" />
<glyph unicode="\" glyph-name="backslash" d="M359 -138L173 760H260L446 -138H359Z" />
<glyph unicode="]" glyph-name="bracketright" d="M463 760L313 -138H18L31 -61H237L361 683H155L168 760H463Z" />
<glyph unicode="^" glyph-name="asciicircum" d="M487 277L363 601H356L132 276L52 318L315 698H432L574 313L487 277Z" />
<glyph unicode="_" glyph-name="underscore" d="M-4 -179L12 -85H487L471 -179H-4Z" />
<glyph unicode="`" glyph-name="grave" d="M208 750L303 790L366 607L299 579L208 750Z" />
<glyph unicode="a" glyph-name="a" d="M367 0L387 122H383Q354 62 313 25T205 -12Q125 -12 87 40T48 188Q48 250 62 311T107 420T182 498T290 528Q349 528 384 501T433 423H438L453 516H560L474 0H367ZM248 75Q307 75 354 129Q371 148 386 176T407 240L424 343Q432
388 405 414T323 441Q256 441 220 401T172 297L160 226Q158 217 157 206T156 183Q156 134 178 105T248 75Z" />
<glyph unicode="b" glyph-name="b" d="M163 740H270L213 394H217Q232 424 249 448T287 491T334 518T395 528Q475 528 513 476T552 328Q552 266 538 205T493 96T418 18T310 -12Q251 -12 216 15T167 93H162L147 0H40L163 740ZM277 75Q344 75 380 115T428 219L440
290Q442 299 443 310T444 333Q444 382 422 411T352 441Q292 441 246 387Q229 368 214 340T193 276L176 173Q168 128 195 102T277 75Z" />
<glyph unicode="c" glyph-name="c" d="M271 -12Q171 -12 119 47T67 206Q67 276 87 335T143 437T230 504T342 528Q384 528 416 519T471 492T508 451T530 401L441 362Q428 404 403 421T332 439Q277 439 240 404T190 296L180 236Q178 222 177 211T176 189Q176 133
204 105T287 77Q303 77 319 80T354 96T396 132T448 196L519 152Q494 112 468 82T413 30T349 -1T271 -12Z" />
<glyph unicode="d" glyph-name="d" d="M387 122H383Q354 62 313 25T205 -12Q125 -12 87 40T48 188Q48 250 62 311T107 420T182 498T290 528Q349 528 384 501T433 423H438L490 740H597L474 0H367L387 122ZM248 75Q307 75 354 129Q371 148 386 176T407 240L424 343Q432
388 405 414T323 441Q256 441 220 401T172 297L160 226Q158 217 157 206T156 183Q156 134 178 105T248 75Z" />
<glyph unicode="e" glyph-name="e" d="M279 -12Q173 -12 120 44T66 209Q66 280 87 338T147 439T239 504T358 528Q397 528 430 519T487 493T526 449T540 388Q540 359 528 329T476 274T365 232T175 211Q174 204 174 199T174 191Q174 167 179 146T198 108T233 83T291
74Q316 74 336 79T375 97T412 128T452 177L522 132Q501 99 477 73T424 28T359 -1T279 -12ZM348 447Q282 447 240 408T185 289L183 278Q267 281 316 291T392 316T426 348T434 381Q434 410 415 428T348 447Z" />
<glyph unicode="f" glyph-name="f" d="M188 -212Q167 -212 149 -205T114 -182T76 -145T30 -91L-22 -28L51 29L182 -123L198 -119L289 429H115L129 516H303L319 612Q328 666 365 703T471 740H646L632 653H433L410 516H610L596 429H396L310 -86Q300 -145 271 -178T188
-212Z" />
<glyph unicode="g" glyph-name="g" d="M216 -212Q150 -212 103 -195T22 -139L90 -71Q133 -125 217 -125Q248 -125 273 -118T318 -93T351 -46T372 29L391 141H386Q357 79 316 43T208 6Q127 6 89 59T50 204Q50 262 64 320T108 424T182 499T289 528Q349 528 384 501T433
423H438L453 516H560L477 18Q467 -43 445 -86T389 -158T312 -199T216 -212ZM251 94Q309 94 356 147Q370 162 386 189T410 256L424 341Q432 387 405 414T323 441Q257 441 220 401T172 296L164 248Q162 236 161 225T160 201Q160 151 181 123T251 94Z" />
<glyph unicode="h" glyph-name="h" d="M168 740H275L217 394H222Q251 456 290 492T392 528Q461 528 496 487T532 379Q532 361 531 342T524 296L475 0H368L418 300Q420 314 422 329T424 358Q424 393 407 417T349 441Q319 441 296 427T252 389Q242 377 224 347T198
276L152 0H45L168 740Z" />
<glyph unicode="i" glyph-name="i" d="M340 611Q302 611 287 625T272 660Q272 666 273 674T276 691Q281 718 298 733T354 749Q392 749 407 735T422 700Q422 694 421 686T418 669Q413 642 396 627T340 611ZM282 -12Q234 -12 210 13T186 78Q186 91 188 104T193 135L250
429H76L90 516H373L289 83L309 75L482 234L543 179L465 101Q434 70 409 49T363 14T323 -6T282 -12Z" />
<glyph unicode="j" glyph-name="j" d="M251 -212Q230 -212 212 -205T176 -182T136 -142T87 -81L36 -19L108 38L248 -125L263 -120L355 429H152L166 516H476L377 -78Q366 -141 337 -176T251 -212ZM442 611Q404 611 389 625T374 660Q374 666 375 674T378 691Q383
718 400 733T456 749Q494 749 509 735T524 700Q524 694 523 686T520 669Q515 642 498 627T442 611Z" />
<glyph unicode="k" glyph-name="k" d="M168 740H275L217 394H222Q235 423 252 447T291 490T339 518T399 528Q462 528 498 493T534 403Q534 374 525 347T493 296T432 251T338 215L397 79L411 77L522 181L577 126L514 61Q477 24 448 6T385 -12Q350 -12 329 7T291
67L223 227Q333 255 379 292T426 376Q426 407 407 425T349 443Q319 443 295 430T250 389Q232 366 218 340T198 277L152 0H45L168 740Z" />
<glyph unicode="l" glyph-name="l" d="M258 -12Q208 -12 186 13T163 80Q163 100 169 132L269 653H99L114 740H393L266 82L287 75L465 236L525 181L439 97Q407 66 382 45T336 12T296 -6T258 -12Z" />
<glyph unicode="m" glyph-name="m" d="M2 0L88 516H179L165 431H170Q188 473 214 500T283 528Q325 528 345 501T362 428H366Q385 473 414 500T490 528Q534 528 556 503T579 430Q579 415 577 394T572 354L513 0H422L479 341Q481 355 483 371T485 397Q485 446 446
446Q412 446 389 409Q378 391 369 370T356 325L302 0H211L269 346Q271 360 272 372T274 396Q274 446 238 446Q204 446 179 409Q166 390 159 370T148 330L93 0H2Z" />
<glyph unicode="n" glyph-name="n" d="M45 0L131 516H238L217 394H222Q251 456 290 492T392 528Q461 528 496 487T532 379Q532 361 531 342T524 296L475 0H368L418 300Q420 314 422 329T424 358Q424 393 407 417T349 441Q319 441 296 427T252 389Q242 377 224
347T198 276L152 0H45Z" />
<glyph unicode="o" glyph-name="o" d="M265 -12Q214 -12 175 4T110 48T69 117T55 208Q55 282 76 341T134 441T223 505T335 528Q386 528 425 512T490 468T531 398T545 308Q545 234 524 175T466 75T377 11T265 -12ZM272 73Q335 73 373 111T422 218L433 284Q435 298
436 310T438 331Q438 388 409 415T328 443Q265 443 227 405T178 298L167 232Q165 218 164 206T162 185Q162 128 191 101T272 73Z" />
<glyph unicode="p" glyph-name="p" d="M126 516H233L213 394H217Q232 424 249 448T287 491T334 518T395 528Q475 528 513 476T552 328Q552 266 538 205T493 96T418 18T310 -12Q251 -12 216 15T167 93H162L114 -200H7L126 516ZM277 75Q344 75 380 115T428 219L440
290Q442 299 443 310T444 333Q444 382 422 411T352 441Q292 441 246 387Q229 368 214 340T193 276L176 173Q168 128 195 102T277 75Z" />
<glyph unicode="q" glyph-name="q" d="M387 122H383Q354 62 313 25T205 -12Q125 -12 87 40T48 188Q48 250 62 311T107 420T182 498T290 528Q349 528 384 501T433 423H438L453 516H560L440 -200H333L387 122ZM248 75Q307 75 354 129Q371 148 386 176T407 240L424
343Q432 388 405 414T323 441Q256 441 220 401T172 297L160 226Q158 217 157 206T156 183Q156 134 178 105T248 75Z" />
<glyph unicode="r" glyph-name="r" d="M165 0L236 429H103L118 516H358L333 370H339Q368 437 413 476T533 516H593L575 409H485Q442 409 415 398T366 360Q356 348 339 321T315 258L272 0H165Z" />
<glyph unicode="s" glyph-name="s" d="M264 -12Q188 -12 132 11T45 80L113 140Q168 70 272 70Q331 70 364 91T398 151Q398 181 380 192T333 209L258 222Q229 227 203 236T156 260T124 300T111 359Q111 401 128 432T176 485T248 517T337 528Q406 528 456 508T536
452L470 389Q455 410 421 428T331 446Q275 446 246 426T216 370Q216 339 235 328T283 312L358 298Q386 293 412 285T458 262T491 224T504 165Q504 124 487 91T439 35T363 0T264 -12Z" />
<glyph unicode="t" glyph-name="t" d="M255 -12Q207 -12 183 14T159 85Q159 94 161 106T165 133L214 429H72L86 516H182Q211 516 225 527T244 568L266 698H366L336 516H544L530 429H321L264 87L284 77L480 216L533 152L442 84Q408 58 383 40T335 11T294 -6T255 -12Z" />
<glyph unicode="u" glyph-name="u" d="M384 122H379Q350 60 311 24T209 -12Q140 -12 105 29T69 137Q69 155 70 174T77 220L126 516H233L183 216Q181 202 179 187T177 158Q177 123 194 99T252 75Q282 75 305 89T349 127Q359 139 377 169T403 240L449 516H556L470
0H363L384 122Z" />
<glyph unicode="v" glyph-name="v" d="M273 516L206 76L219 68Q275 80 316 109T384 178T424 266T438 363Q438 433 407 492L505 525Q525 494 535 454T546 366Q546 288 518 220T443 100T333 20T203 -10Q153 -10 129 15T105 84Q105 95 106 106T109 131L155 429H54L68
516H273Z" />
<glyph unicode="w" glyph-name="w" d="M123 -11Q75 -11 53 17T30 94Q30 109 32 130T38 173L95 516H185L127 179Q125 165 123 151T121 124Q121 76 161 76Q179 76 193 87T219 116Q230 132 237 155T247 196L300 516H387L332 177Q330 162 329 148T327 123Q327 75 365
75Q389 75 410 100T447 167T472 261T482 367Q482 403 477 438T461 498L542 522Q556 495 564 456T572 368Q572 278 551 200T490 69Q430 -11 345 -11Q298 -11 275 16T255 96H250Q230 45 200 17T123 -11Z" />
<glyph unicode="x" glyph-name="x" d="M106 -12Q55 -12 29 20T2 116Q2 129 3 141T6 174L97 183Q95 172 95 163T95 145Q95 105 104 87T136 68Q169 68 191 99T226 174T245 267T251 352Q251 376 250 400T243 441L229 448L82 353L39 414L107 465Q145 493 179 510T246
528Q276 528 293 515T321 478T334 425T337 361H344Q365 451 402 489T495 528Q545 528 571 495T598 401Q598 390 598 376T595 342L504 333Q505 345 505 355T506 373Q506 411 497 429T465 448Q432 448 410 418T375 344T356 253T350 171Q350 145 352 120T360 75L373
68L515 168L560 109L510 65Q459 20 423 4T357 -12Q330 -12 312 0T284 35T270 88T266 154L259 155Q238 65 200 27T106 -12Z" />
<glyph unicode="y" glyph-name="y" d="M211 -212Q144 -212 97 -195T17 -139L85 -71Q128 -125 212 -125Q276 -125 315 -91T369 31L386 138H382Q353 76 314 40T212 4Q143 4 108 45T72 153Q72 171 73 190T80 236L126 516H233L186 232Q184 218 182 203T180 174Q180
139 197 115T255 91Q285 91 308 105T352 143Q362 155 380 185T406 256L449 516H556L472 14Q452 -105 384 -158T211 -212Z" />
<glyph unicode="z" glyph-name="z" d="M420 -11Q393 -11 363 -5T297 16L151 73L146 69L135 0H36L52 96L394 393Q346 421 314 431T252 442Q207 442 190 414T173 340H91V351Q91 437 133 482T250 528Q294 528 340 511T441 452L454 444L459 449L470 516H569L553 422L210
123L440 73L451 85L420 201L489 228L505 193Q518 166 525 141T532 92Q532 72 525 54T503 21T467 -2T420 -11Z" />
<glyph unicode="{" glyph-name="braceleft" d="M259 -138Q210 -138 192 -117T174 -67Q174 -57 176 -38T184 8Q188 35 197 55T216 90T238 118T261 142Q286 168 294 183T303 214Q303 273 200 273H106L119 349H212Q273 349 305 368T338 424Q338 449 318 480Q307 498
295 520T282 577Q282 588 285 611T293 668Q299 708 328 734T408 760H584L571 683H384Q377 645 374 621T371 589Q371 564 378 548T396 515Q407 496 417 475T427 427Q427 381 395 351T298 313L297 307Q345 302 369 280T393 222Q393 187 374 161T328 107Q308 87 293
66T271 4L260 -61H447L434 -138H259Z" />
<glyph unicode="|" glyph-name="bar" d="M189 -138L339 760H430L280 -138H189Z" />
<glyph unicode="}" glyph-name="braceright" d="M360 760Q384 760 400 754T427 739T441 717T445 692Q445 680 443 661T435 614Q430 587 422 567T403 531T381 503T358 480Q332 454 324 439T316 408Q316 349 419 349H513L500 273H407Q346 273 314 254T281 198Q281
184 285 171T301 142Q315 123 326 101T337 45Q337 34 334 11T326 -46Q320 -86 291 -112T211 -138H35L48 -61H235Q242 -23 245 1T248 33Q248 58 241 73T223 107Q211 127 202 148T192 195Q192 241 224 271T321 309L322 315Q274 320 250 342T226 400Q226 435 245 462T291
515Q301 525 309 535T325 556T339 583T348 618L359 683H172L185 760H360Z" />
<glyph unicode="~" glyph-name="asciitilde" d="M405 225Q373 225 349 235T298 260Q274 273 253 283T209 294Q181 294 162 276T126 225L52 265Q75 320 115 352T210 385Q242 385 266 375T317 350Q341 337 362 327T406 316Q434 316 453 334T489 385L563 345Q540
290 500 258T405 225Z" />
<glyph unicode="&#xa0;" glyph-name="uni00A0" />
<glyph unicode="&#xa1;" glyph-name="exclamdown" d="M166 -182L200 21L282 279H323L318 21L284 -182H166ZM320 369Q279 369 262 384T245 421Q245 426 246 434T250 461Q255 488 275 507T341 526Q382 526 399 511T416 474Q416 469 415 461T411 434Q406 407 386
388T320 369Z" />
<glyph unicode="&#xa2;" glyph-name="cent" d="M222 -7Q146 8 107 63T67 206Q67 272 84 328T134 426T212 494T311 526L328 630H411L393 523Q454 513 488 480T535 402L450 368Q430 427 375 440L314 75Q327 77 341 83T371 102T406 136T448 188L517 147Q473 76 424
37T304 -10L287 -114H204L222 -7ZM172 189Q172 101 242 79L302 440Q256 431 227 395T187 297L177 236Q174 220 173 210T172 189Z" />
<glyph unicode="&#xa3;" glyph-name="sterling" d="M467 -12Q438 -12 403 -4T329 17L134 72L122 0H21L38 105Q65 117 86 131T124 165T148 210T157 270Q157 279 157 286T155 302H51L65 384H141Q137 403 135 423T132 464Q132 518 150 563T202 641T282 692T382 710Q425
710 459 699T519 670T562 626T589 574L500 528Q486 566 457 591T377 617Q313 617 277 576T240 456Q240 436 242 419T248 384H427L413 302H263Q265 297 265 289T265 276Q265 231 242 198T174 157L171 151L460 84L471 96L445 208L523 230L536 196Q547 166 553 140T560
89Q560 47 536 18T467 -12Z" />
<glyph unicode="&#xa5;" glyph-name="yen" d="M41 86H220L245 238H67L81 324H217L88 698H201L309 352H314L538 698H660L406 324H543L529 238H349L324 86H503L489 0H27L41 86Z" />
<glyph unicode="&#xa6;" glyph-name="brokenbar" d="M279 400L339 760H430L370 400H279ZM189 -138L249 222H340L280 -138H189Z" />
<glyph unicode="&#xa7;" glyph-name="section" d="M455 17Q455 -23 440 -56T397 -113T329 -150T239 -164Q213 -164 187 -160T136 -148T90 -128T52 -99L114 -32Q136 -55 169 -67T240 -80Q291 -80 323 -57T356 4Q356 33 337 52T271 85L206 106Q131 130 103 165T74
242Q74 300 108 339T215 398L216 407Q184 430 169 462T153 529Q153 569 168 602T211 659T279 696T369 710Q395 710 421 706T472 694T518 674T556 645L494 578Q472 601 439 613T368 626Q317 626 285 603T252 542Q252 513 271 494T337 461L402 440Q477 416 505 381T534
304Q534 246 500 207T393 148L392 139Q424 116 439 84T455 17ZM434 270Q434 299 415 321T344 359L278 379Q268 382 255 387Q174 346 174 276Q174 247 193 225T264 187L330 167Q340 164 353 159Q434 200 434 270Z" />
<glyph unicode="&#xa8;" glyph-name="dieresis" d="M218 608Q184 608 171 620T157 651Q157 656 157 661T160 676Q164 699 179 715T232 731Q266 731 279 719T293 688Q293 683 293 678T290 663Q286 640 271 624T218 608ZM418 608Q384 608 371 620T357 651Q357 656
357 661T360 676Q364 699 379 715T432 731Q466 731 479 719T493 688Q493 683 493 678T490 663Q486 640 471 624T418 608Z" />
<glyph unicode="&#xa9;" glyph-name="copyright" d="M271 18Q214 18 166 37T84 93T30 182T11 300Q11 384 37 454T108 574T217 652T356 680Q413 680 460 661T542 605T596 516T616 398Q616 314 590 244T519 124T410 46T271 18ZM276 72Q328 72 373 89T453 137T512
212T545 309Q552 350 554 368T556 398Q556 442 545 483T509 556T445 607T351 626Q299 626 254 609T174 561T115 486T82 389Q74 348 73 330T71 300Q71 256 82 215T118 142T182 91T276 72ZM293 164Q224 164 187 205T149 318Q149 361 163 400T202 470T263 517T340
535Q396 535 427 510T472 443L400 412Q394 436 380 450T336 464Q298 464 277 441T250 382L240 322Q238 313 238 308T238 297Q238 268 253 252T299 236Q328 236 348 251T385 289L446 253Q423 216 386 190T293 164Z" />
<glyph unicode="&#xaa;" glyph-name="ordfeminine" d="M373 349L383 409H375Q361 380 336 361T272 342Q221 342 193 366T165 431Q165 492 209 522T338 552H405L409 575Q410 582 410 587T411 598Q411 624 394 636T344 648Q312 648 289 634T250 599L208 643Q227
669 263 689T355 710Q417 710 453 683T490 605Q490 582 487 564L451 349H373ZM331 501Q295 501 273 491T246 454Q245 449 245 444T244 436Q244 400 297 400Q331 400 358 415T390 460L397 501H331Z" />
<glyph unicode="&#xab;" glyph-name="guillemotleft" d="M492 51L319 223L336 322L561 491L586 417L421 266L536 117L492 51ZM470 51L297 223L314 322L539 491L564 417L399 266L514 117L470 51Z" />
<glyph unicode="&#xac;" glyph-name="logicalnot" d="M403 68L435 262H65L79 349H539L492 68H403Z" />
<glyph unicode="&#xad;" glyph-name="uni00AD" d="M149 251L167 358H466L448 251H149Z" />
<glyph unicode="&#xae;" glyph-name="registered" d="M309 346Q273 346 244 357T192 390T158 440T146 507Q146 548 161 585T204 649T268 693T351 710Q387 710 416 699T468 666T502 616T514 549Q514 508 499 471T456 406T392 362T309 346ZM309 386Q343 386 369
396T415 423T446 463T462 511Q464 525 465 533T467 550Q467 602 439 636T351 670Q317 670 291 660T245 633T214 593T198 545Q196 531 195 523T193 506Q193 454 221 420T309 386ZM288 439H242L273 624H361Q388 624 402 611T416 574Q416 550 403 534T369 510L401
439H350L325 502H299L288 439ZM335 536Q348 536 355 542T365 558Q366 563 366 565T366 570Q366 588 344 588H313L304 536H335Z" />
<glyph unicode="&#xaf;" glyph-name="overscore" d="M187 710H476L462 629H173L187 710Z" />
<glyph unicode="&#xb0;" glyph-name="degree" d="M329 354Q293 354 263 365T212 398T178 449T166 515Q166 556 181 591T222 653T285 695T364 710Q400 710 429 699T480 666T514 615T526 549Q526 508 511 472T470 410T407 369T329 354ZM333 430Q383 430 413 464T443
547Q443 585 421 609T359 634Q309 634 279 600T249 517Q249 479 271 455T333 430Z" />
<glyph unicode="&#xb1;" glyph-name="plusminus" d="M237 164L268 351H79L93 438H283L314 625H409L378 438H567L553 351H363L332 164H237ZM21 0L35 87H509L495 0H21Z" />
<glyph unicode="&#xb2;" glyph-name="twosuperior" d="M447 329H177L189 399L323 492Q352 512 374 532T401 579Q402 584 402 588T403 597Q403 617 388 628T351 639Q322 639 306 622T281 585L216 611Q232 649 265 676T356 704Q382 704 405 698T446 678T474 645T484
599Q484 573 474 552T446 512T406 477T361 446L277 391H457L447 329Z" />
<glyph unicode="&#xb3;" glyph-name="threesuperior" d="M333 550Q370 550 384 563T401 590Q402 595 402 599T403 607Q403 624 390 634T353 644Q303 644 269 598L224 643Q248 671 280 687T359 704Q419 704 450 678T481 611Q481 576 458 552T395 520V518Q426 512
443 492T461 439Q461 390 422 357T311 323Q254 323 222 343T175 394L229 432Q240 410 259 397T312 383Q343 383 360 396T381 432Q382 437 382 440T383 447Q383 466 367 477T322 489H281L291 550H333Z" />
<glyph unicode="&#xb4;" glyph-name="acute" d="M321 579L258 614L369 790L456 743L321 579Z" />
<glyph unicode="&#xb5;" glyph-name="mu" d="M9 -200L128 516H235L185 216Q183 202 181 187T179 158Q179 123 196 99T254 75Q284 75 307 89T351 127Q361 139 379 169T405 240L451 516H558L472 0H365L386 122H381Q370 96 356 72T323 29T280 -1T226 -12Q197 -12
176 1T145 45H141L137 -68L116 -200H9Z" />
<glyph unicode="&#xb6;" glyph-name="paragraph" d="M265 246Q224 246 190 259T130 298T90 359T76 441Q76 499 98 546T157 628T241 680T340 698H601L459 -149H370L498 615H416L288 -149H199L265 246Z" />
<glyph unicode="&#xb7;" glyph-name="middot" d="M297 224Q255 224 238 239T220 278Q220 286 221 295T225 318Q230 350 253 368T319 386Q361 386 378 371T396 332Q396 324 395 315T391 292Q386 260 363 242T297 224Z" />
<glyph unicode="&#xb8;" glyph-name="cedilla" d="M285 -209Q243 -209 217 -196T180 -166L224 -121Q232 -131 246 -139T284 -148Q304 -148 318 -140T332 -116Q332 -105 321 -94T269 -78L243 -75L280 24H337L307 -58L309 -62Q320 -59 330 -58T348 -57Q376 -57 393
-71T411 -117Q411 -140 401 -157T374 -185T334 -203T285 -209Z" />
<glyph unicode="&#xb9;" glyph-name="onesuperior" d="M202 329L212 389H307L347 626L253 577L229 632L356 698H435L383 389H468L458 329H202Z" />
<glyph unicode="&#xba;" glyph-name="ordmasculine" d="M320 342Q252 342 213 382T174 489Q174 538 188 578T227 648T289 694T371 710Q439 710 478 670T517 563Q517 514 503 474T464 404T402 358T320 342ZM329 405Q369 405 393 429T424 495L434 554Q435 562 435
567T436 578Q436 610 417 628T362 647Q322 647 298 623T267 557L257 498Q256 490 256 485T255 474Q255 442 274 424T329 405Z" />
<glyph unicode="&#xbb;" glyph-name="guillemotright" d="M40 125L205 276L90 425L134 491L307 319L290 220L65 51L40 125ZM274 125L439 276L324 425L368 491L541 319L524 220L299 51L274 125Z" />
<glyph unicode="&#xbc;" glyph-name="onequarter" d="M439 64H279L290 129L460 335H555L519 117H564L555 64H510L499 0H428L439 64ZM448 117L473 269H470L346 117H448ZM66 421H156L192 634L102 591L83 643L197 698H275L229 421H309L299 363H57L66 421ZM577 698H664L449
398H362L577 698ZM183 300H270L55 0H-32L183 300Z" />
<glyph unicode="&#xbd;" glyph-name="onehalf" d="M294 65L419 151Q455 177 470 194T489 229Q490 233 490 238T490 245Q490 263 478 273T445 283Q422 283 406 269T377 230L318 255Q335 291 367 316T453 341Q510 341 538 314T566 249Q566 225 557 206T531 170T495
139T452 109L374 57H544L535 0H283L294 65ZM66 421H156L192 634L102 591L83 643L197 698H275L229 421H309L299 363H57L66 421ZM577 698H664L449 398H362L577 698ZM183 300H270L55 0H-32L183 300Z" />
<glyph unicode="&#xbe;" glyph-name="threequarters" d="M439 64H279L290 129L460 335H555L519 117H564L555 64H510L499 0H428L439 64ZM448 117L473 269H470L346 117H448ZM171 357Q117 357 88 377T46 427L100 460Q108 440 124 427T172 414Q200 414 215 425T234
454Q235 459 235 463T236 472Q236 509 178 509H147L156 563H189Q222 563 237 574T254 599Q255 604 255 607T255 615Q255 629 243 638T207 647Q164 647 131 606L91 647Q116 673 145 688T218 704Q271 704 301 682T332 624Q332 589 308 567T248 539V535Q278 531 295
513T312 466Q312 418 273 388T171 357ZM577 698H664L449 398H362L577 698ZM183 300H270L55 0H-32L183 300Z" />
<glyph unicode="&#xbf;" glyph-name="questiondown" d="M241 -194Q145 -194 92 -146T38 -16Q38 33 57 72T107 138T178 182T259 205L274 293H379L354 138Q307 133 273 125T214 102T175 65T155 8Q154 3 154 -2T153 -16Q153 -56 181 -78T254 -101Q307 -101 339 -72T390
4L479 -36Q467 -68 447 -96T397 -147T329 -181T241 -194ZM339 369Q298 369 281 384T264 421Q264 426 265 434T269 461Q274 488 294 507T360 526Q401 526 418 511T435 474Q435 469 434 461T430 434Q425 407 405 388T339 369Z" />
<glyph unicode="&#xc0;" glyph-name="Agrave" d="M424 0L404 186H177L95 0H-21L300 698H450L538 0H424ZM362 588H353L217 279H395L362 588ZM279 920L374 960L437 777L370 749L279 920Z" />
<glyph unicode="&#xc1;" glyph-name="Aacute" d="M424 0L404 186H177L95 0H-21L300 698H450L538 0H424ZM362 588H353L217 279H395L362 588ZM392 749L329 784L440 960L527 913L392 749Z" />
<glyph unicode="&#xc2;" glyph-name="Acircumflex" d="M424 0L404 186H177L95 0H-21L300 698H450L538 0H424ZM362 588H353L217 279H395L362 588ZM466 943L562 792L503 752L403 868L267 752L215 795L357 943H466Z" />
<glyph unicode="&#xc3;" glyph-name="Atilde" d="M424 0L404 186H177L95 0H-21L300 698H450L538 0H424ZM362 588H353L217 279H395L362 588ZM470 774Q446 774 429 782T395 799Q376 810 360 816T327 822Q311 822 297 815T264 794L231 846Q250 869 278 886T341 903Q365
903 382 895T416 878Q435 867 451 861T484 855Q500 855 514 862T547 883L580 831Q561 808 533 791T470 774Z" />
<glyph unicode="&#xc4;" glyph-name="Adieresis" d="M424 0L404 186H177L95 0H-21L300 698H450L538 0H424ZM362 588H353L217 279H395L362 588ZM289 778Q255 778 242 790T228 821Q228 826 228 831T231 846Q235 869 250 885T303 901Q337 901 350 889T364 858Q364
853 364 848T361 833Q357 810 342 794T289 778ZM489 778Q455 778 442 790T428 821Q428 826 428 831T431 846Q435 869 450 885T503 901Q537 901 550 889T564 858Q564 853 564 848T561 833Q557 810 542 794T489 778Z" />
<glyph unicode="&#xc5;" glyph-name="Aring" d="M424 0L404 186H177L95 0H-21L300 698H450L538 0H424ZM362 588H353L217 279H395L362 588ZM382 736Q333 736 301 767T269 846Q269 876 280 902T312 946T358 976T415 987Q464 987 496 956T528 877Q528 847 517 821T485
777T439 747T382 736ZM388 795Q414 795 430 808T451 849Q453 863 454 871T456 886Q456 906 444 917T409 928Q383 928 367 915T346 874Q344 860 343 852T341 837Q341 817 353 806T388 795Z" />
<glyph unicode="&#xc6;" glyph-name="AE" d="M303 188H173L95 0H-15L287 698H653L639 612H477L441 396H592L578 310H427L389 86H551L537 0H272L303 188ZM349 620L207 274H318L375 620H349Z" />
<glyph unicode="&#xc7;" glyph-name="Ccedilla" d="M377 618Q304 618 261 562T201 406L184 304Q180 281 178 262T176 220Q176 156 204 118T298 80Q325 80 347 89T387 114T420 155T452 210L543 175Q505 92 453 44T315 -11L298 -58L300 -62Q311 -59 321 -58T339
-57Q367 -57 384 -71T402 -117Q402 -140 392 -157T365 -185T325 -203T276 -209Q234 -209 208 -196T171 -166L215 -121Q223 -131 237 -139T275 -148Q295 -148 309 -140T323 -116Q323 -105 312 -94T260 -78L234 -75L257 -11Q158 -1 112 65T66 246Q66 343 87 427T148
575T248 674T385 710Q437 710 474 696T535 657T573 601T591 532L488 506Q484 530 478 550T459 586T427 609T377 618Z" />
<glyph unicode="&#xc8;" glyph-name="Egrave" d="M283 920L378 960L441 777L374 749L283 920ZM42 0L159 698H595L579 605H253L218 400H533L517 307H203L167 93H495L479 0H42Z" />
<glyph unicode="&#xc9;" glyph-name="Eacute" d="M42 0L159 698H595L579 605H253L218 400H533L517 307H203L167 93H495L479 0H42ZM396 749L333 784L444 960L531 913L396 749Z" />
<glyph unicode="&#xca;" glyph-name="Ecircumflex" d="M470 943L566 792L507 752L407 868L271 752L219 795L361 943H470ZM42 0L159 698H595L579 605H253L218 400H533L517 307H203L167 93H495L479 0H42Z" />
<glyph unicode="&#xcb;" glyph-name="Edieresis" d="M42 0L159 698H595L579 605H253L218 400H533L517 307H203L167 93H495L479 0H42ZM293 778Q259 778 246 790T232 821Q232 826 232 831T235 846Q239 869 254 885T307 901Q341 901 354 889T368 858Q368 853 368
848T365 833Q361 810 346 794T293 778ZM493 778Q459 778 446 790T432 821Q432 826 432 831T435 846Q439 869 454 885T507 901Q541 901 554 889T568 858Q568 853 568 848T565 833Q561 810 546 794T493 778Z" />
<glyph unicode="&#xcc;" glyph-name="Igrave" d="M38 0L52 84H216L305 614H141L155 698H593L579 614H415L326 84H490L476 0H38ZM279 920L374 960L437 777L370 749L279 920Z" />
<glyph unicode="&#xcd;" glyph-name="Iacute" d="M38 0L52 84H216L305 614H141L155 698H593L579 614H415L326 84H490L476 0H38ZM392 749L329 784L440 960L527 913L392 749Z" />
<glyph unicode="&#xce;" glyph-name="Icircumflex" d="M38 0L52 84H216L305 614H141L155 698H593L579 614H415L326 84H490L476 0H38ZM466 943L562 792L503 752L403 868L267 752L215 795L357 943H466Z" />
<glyph unicode="&#xcf;" glyph-name="Idieresis" d="M38 0L52 84H216L305 614H141L155 698H593L579 614H415L326 84H490L476 0H38ZM289 778Q255 778 242 790T228 821Q228 826 228 831T231 846Q235 869 250 885T303 901Q337 901 350 889T364 858Q364 853 364 848T361
833Q357 810 342 794T289 778ZM489 778Q455 778 442 790T428 821Q428 826 428 831T431 846Q435 869 450 885T503 901Q537 901 550 889T564 858Q564 853 564 848T561 833Q557 810 542 794T489 778Z" />
<glyph unicode="&#xd0;" glyph-name="Eth" d="M97 327H26L40 410H111L159 698H345Q401 698 444 681T516 633T560 558T575 460Q575 232 489 116T250 0H42L97 327ZM255 91Q333 91 378 139T440 283L458 392Q461 410 463 431T465 470Q465 607 333 607H253L220 407H347L334
329H207L167 91H255Z" />
<glyph unicode="&#xd1;" glyph-name="Ntilde" d="M470 774Q446 774 429 782T395 799Q376 810 360 816T327 822Q311 822 297 815T264 794L231 846Q250 869 278 886T341 903Q365 903 382 895T416 878Q435 867 451 861T484 855Q500 855 514 862T547 883L580 831Q561
808 533 791T470 774ZM228 546H220L129 0H31L147 698H291L403 152H411L502 698H600L484 0H340L228 546Z" />
<glyph unicode="&#xd2;" glyph-name="Ograve" d="M269 920L364 960L427 777L360 749L269 920ZM268 -12Q155 -12 103 53T51 236Q51 286 57 341T78 448T117 548T175 632T256 689T362 710Q475 710 527 645T579 462Q579 411 573 357T552 250T513 150T455 66T374 9T268
-12ZM271 80Q344 80 385 135T443 291L462 406Q466 429 467 448T469 485Q469 548 443 583T359 618Q286 618 245 563T187 407L168 292Q164 269 163 250T161 213Q161 150 187 115T271 80Z" />
<glyph unicode="&#xd3;" glyph-name="Oacute" d="M382 749L319 784L430 960L517 913L382 749ZM268 -12Q155 -12 103 53T51 236Q51 286 57 341T78 448T117 548T175 632T256 689T362 710Q475 710 527 645T579 462Q579 411 573 357T552 250T513 150T455 66T374 9T268
-12ZM271 80Q344 80 385 135T443 291L462 406Q466 429 467 448T469 485Q469 548 443 583T359 618Q286 618 245 563T187 407L168 292Q164 269 163 250T161 213Q161 150 187 115T271 80Z" />
<glyph unicode="&#xd4;" glyph-name="Ocircumflex" d="M456 943L552 792L493 752L393 868L257 752L205 795L347 943H456ZM268 -12Q155 -12 103 53T51 236Q51 286 57 341T78 448T117 548T175 632T256 689T362 710Q475 710 527 645T579 462Q579 411 573 357T552
250T513 150T455 66T374 9T268 -12ZM271 80Q344 80 385 135T443 291L462 406Q466 429 467 448T469 485Q469 548 443 583T359 618Q286 618 245 563T187 407L168 292Q164 269 163 250T161 213Q161 150 187 115T271 80Z" />
<glyph unicode="&#xd5;" glyph-name="Otilde" d="M268 -12Q155 -12 103 53T51 236Q51 286 57 341T78 448T117 548T175 632T256 689T362 710Q475 710 527 645T579 462Q579 411 573 357T552 250T513 150T455 66T374 9T268 -12ZM271 80Q344 80 385 135T443 291L462
406Q466 429 467 448T469 485Q469 548 443 583T359 618Q286 618 245 563T187 407L168 292Q164 269 163 250T161 213Q161 150 187 115T271 80ZM460 774Q436 774 419 782T385 799Q366 810 350 816T317 822Q301 822 287 815T254 794L221 846Q240 869 268 886T331 903Q355
903 372 895T406 878Q425 867 441 861T474 855Q490 855 504 862T537 883L570 831Q551 808 523 791T460 774Z" />
<glyph unicode="&#xd6;" glyph-name="Odieresis" d="M268 -12Q155 -12 103 53T51 236Q51 286 57 341T78 448T117 548T175 632T256 689T362 710Q475 710 527 645T579 462Q579 411 573 357T552 250T513 150T455 66T374 9T268 -12ZM271 80Q344 80 385 135T443 291L462
406Q466 429 467 448T469 485Q469 548 443 583T359 618Q286 618 245 563T187 407L168 292Q164 269 163 250T161 213Q161 150 187 115T271 80ZM279 778Q245 778 232 790T218 821Q218 826 218 831T221 846Q225 869 240 885T293 901Q327 901 340 889T354 858Q354 853
354 848T351 833Q347 810 332 794T279 778ZM479 778Q445 778 432 790T418 821Q418 826 418 831T421 846Q425 869 440 885T493 901Q527 901 540 889T554 858Q554 853 554 848T551 833Q547 810 532 794T479 778Z" />
<glyph unicode="&#xd7;" glyph-name="multiply" d="M302 243L119 87L63 153L247 310L119 465L188 524L316 368L499 524L555 458L371 301L499 146L430 87L302 243Z" />
<glyph unicode="&#xd8;" glyph-name="Oslash" d="M268 -12Q178 -12 125 32L64 -49L-6 -4L74 101Q62 128 57 162T51 236Q51 286 57 341T78 448T117 548T175 632T256 689T362 710Q452 710 505 666L566 747L636 702L556 597Q568 570 573 536T579 462Q579 411 573
357T552 250T513 150T455 66T374 9T268 -12ZM167 296Q164 278 162 261T160 229Q160 223 160 218T161 208L445 582Q417 618 359 618Q287 618 245 564T186 410L167 296ZM271 80Q343 80 385 134T444 288L463 402Q466 420 468 437T470 469Q470 475 470 480T469 490L185
116Q213 80 271 80Z" />
<glyph unicode="&#xd9;" glyph-name="Ugrave" d="M275 920L370 960L433 777L366 749L275 920ZM253 698L184 285Q177 244 174 219T171 178Q171 155 175 137T191 106T222 87T271 80Q314 80 340 92T381 128T405 186T420 262L493 698H603L534 284Q522 210 506 155T462
62T387 7T269 -12Q212 -12 173 0T109 36T74 93T63 170Q63 199 67 236T78 309L143 698H253Z" />
<glyph unicode="&#xda;" glyph-name="Uacute" d="M253 698L184 285Q177 244 174 219T171 178Q171 155 175 137T191 106T222 87T271 80Q314 80 340 92T381 128T405 186T420 262L493 698H603L534 284Q522 210 506 155T462 62T387 7T269 -12Q212 -12 173 0T109 36T74
93T63 170Q63 199 67 236T78 309L143 698H253ZM388 749L325 784L436 960L523 913L388 749Z" />
<glyph unicode="&#xdb;" glyph-name="Ucircumflex" d="M462 943L558 792L499 752L399 868L263 752L211 795L353 943H462ZM253 698L184 285Q177 244 174 219T171 178Q171 155 175 137T191 106T222 87T271 80Q314 80 340 92T381 128T405 186T420 262L493 698H603L534
284Q522 210 506 155T462 62T387 7T269 -12Q212 -12 173 0T109 36T74 93T63 170Q63 199 67 236T78 309L143 698H253Z" />
<glyph unicode="&#xdc;" glyph-name="Udieresis" d="M253 698L184 285Q177 244 174 219T171 178Q171 155 175 137T191 106T222 87T271 80Q314 80 340 92T381 128T405 186T420 262L493 698H603L534 284Q522 210 506 155T462 62T387 7T269 -12Q212 -12 173 0T109
36T74 93T63 170Q63 199 67 236T78 309L143 698H253ZM285 778Q251 778 238 790T224 821Q224 826 224 831T227 846Q231 869 246 885T299 901Q333 901 346 889T360 858Q360 853 360 848T357 833Q353 810 338 794T285 778ZM485 778Q451 778 438 790T424 821Q424 826
424 831T427 846Q431 869 446 885T499 901Q533 901 546 889T560 858Q560 853 560 848T557 833Q553 810 538 794T485 778Z" />
<glyph unicode="&#xdd;" glyph-name="Yacute" d="M203 0L246 261L85 698H202L264 523L311 372H317L417 523L535 698H661L357 266L313 0H203ZM385 749L322 784L433 960L520 913L385 749Z" />
<glyph unicode="&#xde;" glyph-name="Thorn" d="M42 0L159 698H268L246 564H386Q431 564 464 552T520 516T554 461T565 391Q565 276 503 211T328 146H176L151 0H42ZM192 238H323Q428 238 443 328L449 364Q450 369 451 379T452 398Q452 472 361 472H231L192 238Z" />
<glyph unicode="&#xdf;" glyph-name="germandbls" d="M43 0L145 611Q156 678 195 709T294 740H432L418 653H258L235 516H570L555 427L365 209Q443 199 487 159T531 44Q531 -13 511 -58T453 -135T361 -183T237 -200H167L181 -114H244Q319 -114 364 -88T417 2Q420
25 421 35T422 52Q422 100 386 119T273 138H253L268 224L448 429H220L149 0H43Z" />
<glyph unicode="&#xe0;" glyph-name="agrave" d="M367 0L387 122H383Q354 62 313 25T205 -12Q125 -12 87 40T48 188Q48 250 62 311T107 420T182 498T290 528Q349 528 384 501T433 423H438L453 516H560L474 0H367ZM248 75Q307 75 354 129Q371 148 386 176T407 240L424
343Q432 388 405 414T323 441Q256 441 220 401T172 297L160 226Q158 217 157 206T156 183Q156 134 178 105T248 75ZM233 750L328 790L391 607L324 579L233 750Z" />
<glyph unicode="&#xe1;" glyph-name="aacute" d="M367 0L387 122H383Q354 62 313 25T205 -12Q125 -12 87 40T48 188Q48 250 62 311T107 420T182 498T290 528Q349 528 384 501T433 423H438L453 516H560L474 0H367ZM248 75Q307 75 354 129Q371 148 386 176T407 240L424
343Q432 388 405 414T323 441Q256 441 220 401T172 297L160 226Q158 217 157 206T156 183Q156 134 178 105T248 75ZM346 579L283 614L394 790L481 743L346 579Z" />
<glyph unicode="&#xe2;" glyph-name="acircumflex" d="M367 0L387 122H383Q354 62 313 25T205 -12Q125 -12 87 40T48 188Q48 250 62 311T107 420T182 498T290 528Q349 528 384 501T433 423H438L453 516H560L474 0H367ZM248 75Q307 75 354 129Q371 148 386 176T407
240L424 343Q432 388 405 414T323 441Q256 441 220 401T172 297L160 226Q158 217 157 206T156 183Q156 134 178 105T248 75ZM420 773L516 622L457 582L357 698L221 582L169 625L311 773H420Z" />
<glyph unicode="&#xe3;" glyph-name="atilde" d="M367 0L387 122H383Q354 62 313 25T205 -12Q125 -12 87 40T48 188Q48 250 62 311T107 420T182 498T290 528Q349 528 384 501T433 423H438L453 516H560L474 0H367ZM248 75Q307 75 354 129Q371 148 386 176T407 240L424
343Q432 388 405 414T323 441Q256 441 220 401T172 297L160 226Q158 217 157 206T156 183Q156 134 178 105T248 75ZM415 604Q391 604 374 611T340 629Q323 640 306 646T272 652Q256 652 242 645T209 624L176 676Q195 699 223 716T286 733Q310 733 327 726T361 708Q378
697 395 691T429 685Q445 685 459 692T492 713L525 661Q506 638 478 621T415 604Z" />
<glyph unicode="&#xe4;" glyph-name="adieresis" d="M367 0L387 122H383Q354 62 313 25T205 -12Q125 -12 87 40T48 188Q48 250 62 311T107 420T182 498T290 528Q349 528 384 501T433 423H438L453 516H560L474 0H367ZM248 75Q307 75 354 129Q371 148 386 176T407
240L424 343Q432 388 405 414T323 441Q256 441 220 401T172 297L160 226Q158 217 157 206T156 183Q156 134 178 105T248 75ZM243 608Q209 608 196 620T182 651Q182 656 182 661T185 676Q189 699 204 715T257 731Q291 731 304 719T318 688Q318 683 318 678T315 663Q311
640 296 624T243 608ZM443 608Q409 608 396 620T382 651Q382 656 382 661T385 676Q389 699 404 715T457 731Q491 731 504 719T518 688Q518 683 518 678T515 663Q511 640 496 624T443 608Z" />
<glyph unicode="&#xe5;" glyph-name="aring" d="M367 0L387 122H383Q354 62 313 25T205 -12Q125 -12 87 40T48 188Q48 250 62 311T107 420T182 498T290 528Q349 528 384 501T433 423H438L453 516H560L474 0H367ZM248 75Q307 75 354 129Q371 148 386 176T407 240L424
343Q432 388 405 414T323 441Q256 441 220 401T172 297L160 226Q158 217 157 206T156 183Q156 134 178 105T248 75ZM336 566Q287 566 255 597T223 676Q223 706 234 732T266 776T312 806T369 817Q418 817 450 786T482 707Q482 677 471 651T439 607T393 577T336 566ZM342
625Q368 625 384 638T405 679Q407 693 408 701T410 716Q410 736 398 747T363 758Q337 758 321 745T300 704Q298 690 297 682T295 667Q295 647 307 636T342 625Z" />
<glyph unicode="&#xe6;" glyph-name="ae" d="M116 -12Q64 -12 31 20T-3 118Q-3 200 52 245T205 293L258 295L266 345Q268 356 269 366T270 384Q270 456 206 456Q173 456 150 437T107 381L47 421Q73 472 113 500T211 528Q268 528 297 503T328 438H332Q354 480 388
504T472 528Q529 528 563 495T598 402Q598 373 587 344T546 290T467 250T338 232L335 213Q333 199 332 186T331 162Q331 114 348 89T399 64Q434 64 454 88T491 148L561 116Q537 61 496 25T393 -12Q338 -12 301 19T258 115H253Q222 -12 116 -12ZM141 60Q176 60 201
87T235 162L247 231L203 230Q152 228 122 211T85 149Q83 135 83 128T82 116Q82 88 98 74T141 60ZM462 456Q417 456 389 415T350 308L348 295Q396 296 428 305T479 328T507 360T516 399Q516 456 462 456Z" />
<glyph unicode="&#xe7;" glyph-name="ccedilla" d="M342 528Q384 528 416 519T471 492T508 451T530 401L441 362Q428 404 403 421T332 439Q277 439 240 404T190 296L180 236Q178 222 177 211T176 189Q176 133 204 105T287 77Q303 77 319 80T354 96T396 132T448
196L519 152Q473 78 422 37T298 -11L281 -58L283 -62Q294 -59 304 -58T322 -57Q350 -57 367 -71T385 -117Q385 -140 375 -157T348 -185T308 -203T259 -209Q217 -209 191 -196T154 -166L198 -121Q206 -131 220 -139T258 -148Q278 -148 292 -140T306 -116Q306 -105
295 -94T243 -78L217 -75L241 -10Q155 -1 111 56T67 206Q67 276 87 335T143 437T230 504T342 528Z" />
<glyph unicode="&#xe8;" glyph-name="egrave" d="M279 -12Q173 -12 120 44T66 209Q66 280 87 338T147 439T239 504T358 528Q397 528 430 519T487 493T526 449T540 388Q540 359 528 329T476 274T365 232T175 211Q174 204 174 199T174 191Q174 167 179 146T198 108T233
83T291 74Q316 74 336 79T375 97T412 128T452 177L522 132Q501 99 477 73T424 28T359 -1T279 -12ZM348 447Q282 447 240 408T185 289L183 278Q267 281 316 291T392 316T426 348T434 381Q434 410 415 428T348 447ZM257 750L352 790L415 607L348 579L257 750Z" />
<glyph unicode="&#xe9;" glyph-name="eacute" d="M370 579L307 614L418 790L505 743L370 579ZM279 -12Q173 -12 120 44T66 209Q66 280 87 338T147 439T239 504T358 528Q397 528 430 519T487 493T526 449T540 388Q540 359 528 329T476 274T365 232T175 211Q174
204 174 199T174 191Q174 167 179 146T198 108T233 83T291 74Q316 74 336 79T375 97T412 128T452 177L522 132Q501 99 477 73T424 28T359 -1T279 -12ZM348 447Q282 447 240 408T185 289L183 278Q267 281 316 291T392 316T426 348T434 381Q434 410 415 428T348 447Z"
/>
<glyph unicode="&#xea;" glyph-name="ecircumflex" d="M444 773L540 622L481 582L381 698L245 582L193 625L335 773H444ZM279 -12Q173 -12 120 44T66 209Q66 280 87 338T147 439T239 504T358 528Q397 528 430 519T487 493T526 449T540 388Q540 359 528 329T476
274T365 232T175 211Q174 204 174 199T174 191Q174 167 179 146T198 108T233 83T291 74Q316 74 336 79T375 97T412 128T452 177L522 132Q501 99 477 73T424 28T359 -1T279 -12ZM348 447Q282 447 240 408T185 289L183 278Q267 281 316 291T392 316T426 348T434 381Q434
410 415 428T348 447Z" />
<glyph unicode="&#xeb;" glyph-name="edieresis" d="M267 608Q233 608 220 620T206 651Q206 656 206 661T209 676Q213 699 228 715T281 731Q315 731 328 719T342 688Q342 683 342 678T339 663Q335 640 320 624T267 608ZM467 608Q433 608 420 620T406 651Q406 656
406 661T409 676Q413 699 428 715T481 731Q515 731 528 719T542 688Q542 683 542 678T539 663Q535 640 520 624T467 608ZM279 -12Q173 -12 120 44T66 209Q66 280 87 338T147 439T239 504T358 528Q397 528 430 519T487 493T526 449T540 388Q540 359 528 329T476
274T365 232T175 211Q174 204 174 199T174 191Q174 167 179 146T198 108T233 83T291 74Q316 74 336 79T375 97T412 128T452 177L522 132Q501 99 477 73T424 28T359 -1T279 -12ZM348 447Q282 447 240 408T185 289L183 278Q267 281 316 291T392 316T426 348T434 381Q434
410 415 428T348 447Z" />
<glyph unicode="&#xec;" glyph-name="igrave" d="M282 -12Q234 -12 210 13T186 78Q186 101 193 135L250 429H76L90 516H373L289 83L309 75L482 234L543 179L465 101Q434 70 409 49T363 14T323 -6T282 -12ZM224 750L319 790L382 607L315 579L224 750Z" />
<glyph unicode="&#xed;" glyph-name="iacute" d="M337 579L274 614L385 790L472 743L337 579ZM282 -12Q234 -12 210 13T186 78Q186 101 193 135L250 429H76L90 516H373L289 83L309 75L482 234L543 179L465 101Q434 70 409 49T363 14T323 -6T282 -12Z" />
<glyph unicode="&#xee;" glyph-name="icircumflex" d="M411 773L507 622L448 582L348 698L212 582L160 625L302 773H411ZM282 -12Q234 -12 210 13T186 78Q186 101 193 135L250 429H76L90 516H373L289 83L309 75L482 234L543 179L465 101Q434 70 409 49T363 14T323
-6T282 -12Z" />
<glyph unicode="&#xef;" glyph-name="idieresis" d="M234 608Q200 608 187 620T173 651Q173 656 173 661T176 676Q180 699 195 715T248 731Q282 731 295 719T309 688Q309 683 309 678T306 663Q302 640 287 624T234 608ZM434 608Q400 608 387 620T373 651Q373 656
373 661T376 676Q380 699 395 715T448 731Q482 731 495 719T509 688Q509 683 509 678T506 663Q502 640 487 624T434 608ZM282 -12Q234 -12 210 13T186 78Q186 101 193 135L250 429H76L90 516H373L289 83L309 75L482 234L543 179L465 101Q434 70 409 49T363 14T323
-6T282 -12Z" />
<glyph unicode="&#xf0;" glyph-name="eth" d="M448 646Q491 592 521 517T551 343Q551 257 531 191T472 80T379 12T256 -12Q208 -12 170 3T104 46T63 113T48 201Q48 265 67 320T119 415T199 479T301 502Q355 502 392 477T446 409L452 412Q437 507 362 597L259 536L224
588L318 644Q289 670 256 694T184 740H350Q363 730 377 719T405 693L505 753L540 701L448 646ZM271 73Q333 73 373 109T424 213L433 267Q435 281 436 291T438 310Q438 364 407 390T323 416Q261 416 221 380T170 276L161 222Q159 208 158 198T156 179Q156 125 187
99T271 73Z" />
<glyph unicode="&#xf1;" glyph-name="ntilde" d="M45 0L131 516H238L217 394H222Q251 456 290 492T392 528Q461 528 496 487T532 379Q532 361 531 342T524 296L475 0H368L418 300Q420 314 422 329T424 358Q424 393 407 417T349 441Q319 441 296 427T252 389Q242
377 224 347T198 276L152 0H45ZM424 604Q400 604 383 611T349 629Q332 640 315 646T281 652Q265 652 251 645T218 624L185 676Q204 699 232 716T295 733Q319 733 336 726T370 708Q387 697 404 691T438 685Q454 685 468 692T501 713L534 661Q515 638 487 621T424
604Z" />
<glyph unicode="&#xf2;" glyph-name="ograve" d="M265 -12Q214 -12 175 4T110 48T69 117T55 208Q55 282 76 341T134 441T223 505T335 528Q386 528 425 512T490 468T531 398T545 308Q545 234 524 175T466 75T377 11T265 -12ZM272 73Q335 73 373 111T422 218L433
284Q435 298 436 310T438 331Q438 388 409 415T328 443Q265 443 227 405T178 298L167 232Q165 218 164 206T162 185Q162 128 191 101T272 73ZM251 750L346 790L409 607L342 579L251 750Z" />
<glyph unicode="&#xf3;" glyph-name="oacute" d="M364 579L301 614L412 790L499 743L364 579ZM265 -12Q214 -12 175 4T110 48T69 117T55 208Q55 282 76 341T134 441T223 505T335 528Q386 528 425 512T490 468T531 398T545 308Q545 234 524 175T466 75T377 11T265
-12ZM272 73Q335 73 373 111T422 218L433 284Q435 298 436 310T438 331Q438 388 409 415T328 443Q265 443 227 405T178 298L167 232Q165 218 164 206T162 185Q162 128 191 101T272 73Z" />
<glyph unicode="&#xf4;" glyph-name="ocircumflex" d="M438 773L534 622L475 582L375 698L239 582L187 625L329 773H438ZM265 -12Q214 -12 175 4T110 48T69 117T55 208Q55 282 76 341T134 441T223 505T335 528Q386 528 425 512T490 468T531 398T545 308Q545 234
524 175T466 75T377 11T265 -12ZM272 73Q335 73 373 111T422 218L433 284Q435 298 436 310T438 331Q438 388 409 415T328 443Q265 443 227 405T178 298L167 232Q165 218 164 206T162 185Q162 128 191 101T272 73Z" />
<glyph unicode="&#xf5;" glyph-name="otilde" d="M265 -12Q214 -12 175 4T110 48T69 117T55 208Q55 282 76 341T134 441T223 505T335 528Q386 528 425 512T490 468T531 398T545 308Q545 234 524 175T466 75T377 11T265 -12ZM272 73Q335 73 373 111T422 218L433
284Q435 298 436 310T438 331Q438 388 409 415T328 443Q265 443 227 405T178 298L167 232Q165 218 164 206T162 185Q162 128 191 101T272 73ZM433 604Q409 604 392 611T358 629Q341 640 324 646T290 652Q274 652 260 645T227 624L194 676Q213 699 241 716T304 733Q328
733 345 726T379 708Q396 697 413 691T447 685Q463 685 477 692T510 713L543 661Q524 638 496 621T433 604Z" />
<glyph unicode="&#xf6;" glyph-name="odieresis" d="M261 608Q227 608 214 620T200 651Q200 656 200 661T203 676Q207 699 222 715T275 731Q309 731 322 719T336 688Q336 683 336 678T333 663Q329 640 314 624T261 608ZM461 608Q427 608 414 620T400 651Q400 656
400 661T403 676Q407 699 422 715T475 731Q509 731 522 719T536 688Q536 683 536 678T533 663Q529 640 514 624T461 608ZM265 -12Q214 -12 175 4T110 48T69 117T55 208Q55 282 76 341T134 441T223 505T335 528Q386 528 425 512T490 468T531 398T545 308Q545 234
524 175T466 75T377 11T265 -12ZM272 73Q335 73 373 111T422 218L433 284Q435 298 436 310T438 331Q438 388 409 415T328 443Q265 443 227 405T178 298L167 232Q165 218 164 206T162 185Q162 128 191 101T272 73Z" />
<glyph unicode="&#xf7;" glyph-name="divide" d="M64 262L78 349H552L538 262H64ZM267 43Q231 43 216 56T201 89Q201 102 204 120Q209 147 227 162T283 178Q319 178 334 165T349 132Q349 119 346 101Q341 74 323 59T267 43ZM332 433Q296 433 281 446T266 479Q266
492 269 510Q274 537 292 552T348 568Q384 568 399 555T414 522Q414 509 411 491Q406 464 388 449T332 433Z" />
<glyph unicode="&#xf8;" glyph-name="oslash" d="M-3 1L82 88Q69 113 62 143T55 208Q55 282 76 341T134 441T223 505T335 528Q420 528 474 483L549 560L603 515L518 428Q531 403 538 373T545 308Q545 234 524 175T466 75T377 11T265 -12Q180 -12 126 33L51 -44L-3
1ZM328 443Q265 443 227 405T178 299L167 232Q165 218 164 206T162 185Q162 180 162 175T163 165L407 416Q378 443 328 443ZM272 73Q335 73 373 111T422 217L433 284Q435 298 436 310T438 331Q438 336 438 341T437 351L193 100Q221 73 272 73Z" />
<glyph unicode="&#xf9;" glyph-name="ugrave" d="M384 122H379Q350 60 311 24T209 -12Q140 -12 105 29T69 137Q69 155 70 174T77 220L126 516H233L183 216Q181 202 179 187T177 158Q177 123 194 99T252 75Q282 75 305 89T349 127Q359 139 377 169T403 240L449
516H556L470 0H363L384 122ZM247 750L342 790L405 607L338 579L247 750Z" />
<glyph unicode="&#xfa;" glyph-name="uacute" d="M360 579L297 614L408 790L495 743L360 579ZM384 122H379Q350 60 311 24T209 -12Q140 -12 105 29T69 137Q69 155 70 174T77 220L126 516H233L183 216Q181 202 179 187T177 158Q177 123 194 99T252 75Q282 75 305
89T349 127Q359 139 377 169T403 240L449 516H556L470 0H363L384 122Z" />
<glyph unicode="&#xfb;" glyph-name="ucircumflex" d="M434 773L530 622L471 582L371 698L235 582L183 625L325 773H434ZM384 122H379Q350 60 311 24T209 -12Q140 -12 105 29T69 137Q69 155 70 174T77 220L126 516H233L183 216Q181 202 179 187T177 158Q177 123
194 99T252 75Q282 75 305 89T349 127Q359 139 377 169T403 240L449 516H556L470 0H363L384 122Z" />
<glyph unicode="&#xfc;" glyph-name="udieresis" d="M257 608Q223 608 210 620T196 651Q196 656 196 661T199 676Q203 699 218 715T271 731Q305 731 318 719T332 688Q332 683 332 678T329 663Q325 640 310 624T257 608ZM457 608Q423 608 410 620T396 651Q396 656
396 661T399 676Q403 699 418 715T471 731Q505 731 518 719T532 688Q532 683 532 678T529 663Q525 640 510 624T457 608ZM384 122H379Q350 60 311 24T209 -12Q140 -12 105 29T69 137Q69 155 70 174T77 220L126 516H233L183 216Q181 202 179 187T177 158Q177 123
194 99T252 75Q282 75 305 89T349 127Q359 139 377 169T403 240L449 516H556L470 0H363L384 122Z" />
<glyph unicode="&#xfd;" glyph-name="yacute" d="M211 -212Q144 -212 97 -195T17 -139L85 -71Q128 -125 212 -125Q276 -125 315 -91T369 31L386 138H382Q353 76 314 40T212 4Q143 4 108 45T72 153Q72 171 73 190T80 236L126 516H233L186 232Q184 218 182 203T180
174Q180 139 197 115T255 91Q285 91 308 105T352 143Q362 155 380 185T406 256L449 516H556L472 14Q452 -105 384 -158T211 -212ZM367 579L304 614L415 790L502 743L367 579Z" />
<glyph unicode="&#xfe;" glyph-name="thorn" d="M163 740H270L213 394H217Q232 424 249 448T287 491T334 518T395 528Q475 528 513 476T552 328Q552 266 538 205T493 96T418 18T310 -12Q251 -12 216 15T167 93H162L114 -200H7L163 740ZM277 75Q344 75 380 115T428
219L440 290Q442 299 443 310T444 333Q444 382 422 411T352 441Q292 441 246 387Q229 368 214 340T193 276L176 173Q168 128 195 102T277 75Z" />
<glyph unicode="&#xff;" glyph-name="ydieresis" d="M211 -212Q144 -212 97 -195T17 -139L85 -71Q128 -125 212 -125Q276 -125 315 -91T369 31L386 138H382Q353 76 314 40T212 4Q143 4 108 45T72 153Q72 171 73 190T80 236L126 516H233L186 232Q184 218 182 203T180
174Q180 139 197 115T255 91Q285 91 308 105T352 143Q362 155 380 185T406 256L449 516H556L472 14Q452 -105 384 -158T211 -212ZM264 608Q230 608 217 620T203 651Q203 656 203 661T206 676Q210 699 225 715T278 731Q312 731 325 719T339 688Q339 683 339 678T336
663Q332 640 317 624T264 608ZM464 608Q430 608 417 620T403 651Q403 656 403 661T406 676Q410 699 425 715T478 731Q512 731 525 719T539 688Q539 683 539 678T536 663Q532 640 517 624T464 608Z" />
<glyph unicode="&#x2013;" glyph-name="endash" d="M63 258L78 350H553L538 258H63Z" />
<glyph unicode="&#x2014;" glyph-name="emdash" d="M3 258L18 350H612L597 258H3Z" />
<glyph unicode="&#x2018;" glyph-name="quoteleft" d="M381 740H465L362 444H209L381 740Z" />
<glyph unicode="&#x2019;" glyph-name="quoteright" d="M345 740H498L326 444H242L345 740Z" />
<glyph unicode="&#x201a;" glyph-name="quotesinglbase" d="M234 151H387L215 -145H131L234 151Z" />
<glyph unicode="&#x201c;" glyph-name="quotedblleft" d="M524 740H608L505 444H352L524 740ZM513 740H597L494 444H341L513 740Z" />
<glyph unicode="&#x201d;" glyph-name="quotedblright" d="M483 740H636L464 444H380L483 740ZM471 740H624L452 444H368L471 740Z" />
<glyph unicode="&#x201e;" glyph-name="quotedblbase" d="M380 151H533L361 -145H277L380 151ZM369 151H522L350 -145H266L369 151Z" />
<glyph unicode="&#x2022;" glyph-name="bullet" d="M289 174Q224 174 197 200T170 267Q170 273 171 284T176 318Q180 343 190 364T219 400T264 425T327 434Q392 434 419 408T446 341Q446 335 445 324T440 290Q436 265 426 244T397 208T352 183T289 174Z" />
<glyph unicode="&#x2039;" glyph-name="guilsinglleft" d="M338 51L165 223L182 322L407 491L432 417L267 266L382 117L338 51Z" />
<glyph unicode="&#x203a;" glyph-name="guilsinglright" d="M171 125L336 276L221 425L265 491L438 319L421 220L196 51L171 125Z" />
</font>
</defs>
</svg>
