<?xml version="1.0" encoding="utf-8"?>
<svg viewBox="0 0 256 256" height="256px" width="256px" id="svg2" version="1.1" xmlns="http://www.w3.org/2000/svg" xmlns:bx="https://boxy-svg.com">
  <rect width="256" height="256" style="fill: white;" bx:origin="0 0"/>
  <path style="fill: none; stroke: black; stroke-linecap: butt; stroke-linejoin: miter; stroke-miterlimit: 4; stroke-width: 8px;" d="M 100.4 36.878 L 157.448 36.878 C 174.796 36.878 183.606 36.878 192.962 39.844 C 203.201 43.57 211.267 51.636 214.992 61.875 C 217.958 71.232 217.958 80.041 217.958 97.657 L 217.958 154.436 C 217.958 171.784 217.958 180.594 214.992 189.95 C 211.267 200.189 203.201 208.256 192.962 211.982 C 183.606 214.948 174.796 214.948 157.18 214.948 L 100.4 214.948 C 83.052 214.948 74.243 214.948 64.887 211.982 C 54.647 208.256 46.581 200.189 42.856 189.95 C 39.89 180.594 39.89 171.784 39.89 154.169 L 39.89 97.389 C 39.89 80.041 39.89 71.232 42.856 61.875 C 46.581 51.636 54.647 43.57 64.887 39.844 C 74.243 36.878 83.052 36.878 100.668 36.878 Z">
    <title>RoundedSquare</title>
  </path>
  <path d="M 177.471 129.914 C 177.471 144.467 171.889 157.827 160.723 169.988 C 168.898 180.754 172.985 192.119 172.985 204.082 C 172.985 218.837 168.148 231.197 158.474 241.166 C 148.808 251.136 136.798 256.119 122.443 256.119 C 110.679 256.119 101.01 252.881 93.434 246.405 C 85.857 239.921 82.068 231.795 82.068 222.025 C 82.068 215.447 83.863 210.21 87.452 206.318 C 91.04 202.434 95.826 200.492 101.807 200.492 C 106.194 200.492 110.034 201.988 113.328 204.979 C 116.614 207.97 118.256 211.458 118.256 215.447 C 118.256 223.222 111.377 227.509 97.62 228.306 C 93.235 228.505 91.04 229.502 91.04 231.297 C 91.04 236.281 94.282 240.815 100.767 244.898 C 107.243 248.991 114.468 251.035 122.443 251.035 C 141.782 251.035 151.452 239.969 151.452 217.839 C 151.452 207.869 149.358 199.496 145.172 192.718 C 140.985 185.939 133.208 178.362 121.845 169.988 C 104.698 157.228 93.931 148.056 89.545 142.474 C 83.564 134.898 80.573 125.626 80.573 114.661 C 80.573 101.304 86.356 87.645 97.92 73.689 C 91.141 64.718 87.752 55.247 87.752 45.277 C 87.752 31.72 92.09 20.806 100.767 12.536 C 109.436 4.257 120.846 0.119 135.003 0.119 C 146.568 0.119 155.99 3.162 163.271 9.247 C 170.544 15.323 174.181 23.247 174.181 33.016 C 174.181 45.178 168.698 51.259 157.732 51.259 C 147.365 51.259 142.181 46.773 142.181 37.801 C 142.181 33.215 143.478 30.025 146.069 28.231 C 148.66 26.436 153.745 25.34 161.321 24.941 C 163.116 24.941 164.013 24.145 164.013 22.549 C 164.013 18.163 161.122 14.227 155.34 10.742 C 149.558 7.247 143.078 5.502 135.9 5.502 C 127.527 5.502 120.846 7.995 115.863 12.978 C 110.879 17.962 108.386 24.642 108.386 33.016 C 108.386 40.991 110.679 48.116 115.265 54.393 C 119.851 60.677 128.324 68.306 140.686 77.278 C 154.642 87.446 163.913 96.218 168.499 103.595 C 174.48 112.967 177.471 121.738 177.471 129.914 Z M 166.405 146.063 C 166.405 134.698 156.536 121.54 136.798 106.586 C 133.01 103.595 127.329 99.21 119.751 93.428 C 119.153 93.028 117.558 91.732 114.967 89.54 L 101.807 77.876 L 100.612 79.371 C 95.826 85.352 93.434 92.13 93.434 99.709 C 93.434 108.481 98.517 117.453 108.686 126.624 C 113.271 130.81 124.038 139.583 140.985 152.941 C 143.377 154.736 148.562 159.122 156.536 166.101 C 163.116 158.524 166.405 151.845 166.405 146.063 Z" bx:origin="0.489453 0.499535">
    <title>Section</title>
  </path>
</svg>